<?xml version="1.0" encoding="utf-8"?>
<!-- Generator: Adobe Illustrator 21.0.0, SVG Export Plug-In . SVG Version: 6.00 Build 0)  -->
<svg version="1.1" xmlns="http://www.w3.org/2000/svg" xmlns:xlink="http://www.w3.org/1999/xlink" x="0px" y="0px"
	 viewBox="0 0 1400 980" enable-background="new 0 0 1400 980" xml:space="preserve">
  <g id="Layer_1">
    <g>
      <g>
        <g>
          <path fill="#FFFFFF" d="M216.115,76.111c-1.744,44.526,9.081,88.964,31.007,127.748c2.534,4.482,9.447,0.455,6.908-4.038
            c-21.262-37.611-31.605-80.547-29.915-123.711C224.317,70.963,216.317,70.972,216.115,76.111L216.115,76.111z"/>
        </g>
      </g>
      <g>
        <g>
          <path fill="#FFFFFF" d="M272.612,257.102c5.148,0,5.156-8,0-8C267.464,249.102,267.456,257.102,272.612,257.102L272.612,257.102z
            "/>
        </g>
      </g>
      <g>
        <g>
          <path fill="#FFFFFF" d="M293.611,290.101c5.148,0,5.156-8,0-8C288.463,282.101,288.455,290.101,293.611,290.101L293.611,290.101z
            "/>
        </g>
      </g>
    </g>
    <g>
      <g>
        <g>
          <path fill="#FFFFFF" d="M1020.831,367.141c39.747-27.071,72.496-63.603,94.877-106.185c2.393-4.553-4.509-8.602-6.908-4.038
            c-21.738,41.357-53.378,77.006-92.007,103.315C1012.563,363.115,1016.561,370.05,1020.831,367.141L1020.831,367.141z"/>
        </g>
      </g>
      <g>
        <g>
          <path fill="#FFFFFF" d="M1132.069,231.604c5.148,0,5.156-8,0-8C1126.921,223.604,1126.913,231.604,1132.069,231.604
            L1132.069,231.604z"/>
        </g>
      </g>
      <g>
        <g>
          <path fill="#FFFFFF" d="M1142.568,204.605c5.148,0,5.156-8,0-8C1137.421,196.605,1137.412,204.605,1142.568,204.605
            L1142.568,204.605z"/>
        </g>
      </g>
    </g>
  </g>
</svg>